# xmcd
#
# Track frame offsets:
#	150
#	8712
#	17554
#	29252
#	42950
#	52219
#	66129
#	76036
#	88408
#	98081
#	109593
#	121695
#	136019
#	147053
#	153680
#	167229
#	178059
#	189617
#	203307
#	213127
#	227567
#	237912
#	247120
#	259795
#	270016
#	280809
#	290166
#	299826
#
# Disc length: 4108 seconds
#
# Revision: 1
# Processed by: cddbd v1.5.1PL0 Copyright (c) Steve Scherf et al.
# Submitted via: audiograbber 1.83.01
#
DISCID=8a100a1c
DTITLE=Zé Corrêa - O Idolo de Mato Grosso
DYEAR=1900
DGENRE=Chamamé
TTITLE0=A Colônia
TTITLE1=Cantar da Angola
TTITLE2=Rainha da Fronteira
TTITLE3=Passo Formoso
TTITLE4=Assim é minha Terra
TTITLE5=A Motogrossense
TTITLE6=O Jacaré
TTITLE7=Don Tranqui
TTITLE8=Laxinxa
TTITLE9=Chamamé Carinhoso
TTITLE10=Sidrolândia, Perôla
TTITLE11=Gumercindo Barbosa
TTITLE12=A Chorona
TTITLE13=Um Fandango em Corumbá
TTITLE14=Mensagem de Amor
TTITLE15=Quilômetro 11
TTITLE16=Celina
TTITLE17=Jamas te Podre Olvidar
TTITLE18=Alavanca
TTITLE19=Mi Ranchito
TTITLE20=Mensu
TTITLE21=O Triste
TTITLE22=El Rancho Aquel
TTITLE23=Guia Lopes da Laguna
TTITLE24=Pist
TTITLE25=pjjh
TTITLE26=utrwsd
TTITLE27=uuuug
EXTD=
EXTT0=
EXTT1=
EXTT2=
EXTT3=
EXTT4=
EXTT5=
EXTT6=
EXTT7=
EXTT8=
EXTT9=
EXTT10=
EXTT11=
EXTT12=
EXTT13=
EXTT14=
EXTT15=
EXTT16=
EXTT17=
EXTT18=
EXTT19=
EXTT20=
EXTT21=
EXTT22=
EXTT23=
EXTT24=
EXTT25=
EXTT26=
EXTT27=
PLAYORDER=
